<svg width="28" height="28" viewBox="0 0 28 28" fill="none" xmlns="http://www.w3.org/2000/svg">
<path d="M25.0001 6.22225H20.6667V2.88891C20.6667 2.2778 20.1667 1.7778 19.5556 1.7778C18.9445 1.7778 18.4445 2.2778 18.4445 2.88891V6.22225H14.1112C13.4556 6.22225 12.9445 6.78891 13.0001 7.44447L13.1334 8.78891C17.2223 9.73336 20.6667 12.6334 20.6667 17.3334L20.6889 26.2222H22.5778C23.5112 26.2222 24.2778 25.5 24.3889 24.5889L26.1001 7.44447C26.1667 6.78891 25.6556 6.22225 25.0001 6.22225ZM17.3334 24H2.88894C2.27783 24 1.77783 24.5 1.77783 25.1111C1.77783 25.7222 2.27783 26.2222 2.88894 26.2222H17.3334C17.9445 26.2222 18.4445 25.7222 18.4445 25.1111C18.4445 24.5 17.9445 24 17.3334 24ZM3.00005 17.3334H17.2223C17.9112 17.3334 18.4556 16.7111 18.3223 16.0445C17.6001 12.4556 13.8556 10.6556 10.1112 10.6556C6.36672 10.6556 2.63339 12.4556 1.90005 16.0445C1.76672 16.7111 2.32228 17.3334 3.00005 17.3334ZM17.3334 19.5556H2.88894C2.27783 19.5556 1.77783 20.0556 1.77783 20.6667C1.77783 21.2778 2.27783 21.7778 2.88894 21.7778H17.3334C17.9445 21.7778 18.4445 21.2778 18.4445 20.6667C18.4445 20.0556 17.9445 19.5556 17.3334 19.5556Z" fill="#F7F7F7"/>
</svg>
