<svg width="28" height="28" viewBox="0 0 28 28" fill="none" xmlns="http://www.w3.org/2000/svg">
<path d="M22.7001 8.99998L20.1779 6.47776C20.2557 6.01109 20.3779 5.57775 20.5335 5.19998C20.6557 4.91109 20.7001 4.57776 20.6335 4.23331C20.489 3.43331 19.7113 2.87775 18.889 2.88887C17.1224 2.9222 15.5557 3.78887 14.5557 5.11109H9.00015C5.62237 5.11109 2.88904 7.84442 2.88904 11.2222C2.88904 13.7222 4.41126 19.5333 5.20015 22.3778C5.46682 23.3333 6.34459 24 7.34459 24H9.5557C10.7779 24 11.7779 23 11.7779 21.7778H14.0001C14.0001 23 15.0001 24 16.2224 24H18.4557C19.4335 24 20.3001 23.3555 20.589 22.4111L21.9779 17.7889L24.3557 16.9889C24.5764 16.9143 24.7681 16.7723 24.9037 16.5829C25.0392 16.3935 25.1119 16.1662 25.1113 15.9333V10.1111C25.1113 9.49998 24.6113 8.99998 24.0001 8.99998H22.7001ZM14.0001 10.6666H10.6668C10.0557 10.6666 9.5557 10.1666 9.5557 9.55553C9.5557 8.94442 10.0557 8.44442 10.6668 8.44442H14.0001C14.6113 8.44442 15.1113 8.94442 15.1113 9.55553C15.1113 10.1666 14.6113 10.6666 14.0001 10.6666ZM18.4446 12.8889C17.8335 12.8889 17.3335 12.3889 17.3335 11.7778C17.3335 11.1666 17.8335 10.6666 18.4446 10.6666C19.0557 10.6666 19.5557 11.1666 19.5557 11.7778C19.5557 12.3889 19.0557 12.8889 18.4446 12.8889Z" fill="#F7F7F7"/>
</svg>

