<svg width="16" height="16" viewBox="0 0 16 16" fill="none" xmlns="http://www.w3.org/2000/svg">
<path d="M3.99998 12.6667C3.99998 13.4 4.59998 14 5.33331 14H10.6666C11.4 14 12 13.4 12 12.6667V4.66667H3.99998V12.6667ZM6.11331 8.39333C5.98866 8.26868 5.91863 8.09962 5.91863 7.92333C5.91863 7.74705 5.98866 7.57799 6.11331 7.45333C6.23796 7.32868 6.40703 7.25865 6.58331 7.25865C6.7596 7.25865 6.92866 7.32868 7.05331 7.45333L7.99998 8.39333L8.93998 7.45333C9.06463 7.32868 9.2337 7.25865 9.40998 7.25865C9.58626 7.25865 9.75533 7.32868 9.87998 7.45333C10.0046 7.57799 10.0747 7.74705 10.0747 7.92333C10.0747 8.09962 10.0046 8.26868 9.87998 8.39333L8.93998 9.33333L9.87998 10.2733C9.9417 10.3351 9.99066 10.4083 10.0241 10.489C10.0575 10.5696 10.0747 10.656 10.0747 10.7433C10.0747 10.8306 10.0575 10.9171 10.0241 10.9977C9.99066 11.0783 9.9417 11.1516 9.87998 11.2133C9.81826 11.2751 9.74498 11.324 9.66434 11.3574C9.5837 11.3908 9.49727 11.408 9.40998 11.408C9.32269 11.408 9.23626 11.3908 9.15562 11.3574C9.07497 11.324 9.0017 11.2751 8.93998 11.2133L7.99998 10.2733L7.05998 11.2133C6.99826 11.2751 6.92498 11.324 6.84434 11.3574C6.7637 11.3908 6.67727 11.408 6.58998 11.408C6.50269 11.408 6.41626 11.3908 6.33562 11.3574C6.25498 11.324 6.1817 11.2751 6.11998 11.2133C6.05826 11.1516 6.0093 11.0783 5.9759 10.9977C5.94249 10.9171 5.9253 10.8306 5.9253 10.7433C5.9253 10.656 5.94249 10.5696 5.9759 10.489C6.0093 10.4083 6.05826 10.3351 6.11998 10.2733L7.05998 9.33333L6.11331 8.39333ZM12 2.66667H10.3333L9.85998 2.19333C9.73998 2.07333 9.56665 2 9.39331 2H6.60665C6.43331 2 6.25998 2.07333 6.13998 2.19333L5.66665 2.66667H3.99998C3.63331 2.66667 3.33331 2.96667 3.33331 3.33333C3.33331 3.7 3.63331 4 3.99998 4H12C12.3666 4 12.6666 3.7 12.6666 3.33333C12.6666 2.96667 12.3666 2.66667 12 2.66667Z" fill="#BA1A1A"/>
</svg>

