<svg width="28" height="28" viewBox="0 0 28 28" fill="none" xmlns="http://www.w3.org/2000/svg">
<path d="M22.889 14C22.889 13.1556 23.3668 12.4222 24.0668 12.0445C24.7335 11.6778 25.1113 10.9222 25.1113 10.1556V7.33335C25.1113 6.11113 24.1113 5.11113 22.889 5.11113H5.11126C3.88904 5.11113 2.90015 6.10002 2.90015 7.32224V10.1556C2.90015 10.9222 3.26682 11.6778 3.94459 12.0334C4.64459 12.4222 5.11126 13.1556 5.11126 14C5.11126 14.8445 4.63348 15.5889 3.93348 15.9556C3.26682 16.3222 2.88904 17.0778 2.88904 17.8445V20.3445C2.88904 21.8889 3.88904 22.8889 5.11126 22.8889H22.889C24.1113 22.8889 25.1113 21.8889 25.1113 20.6667V17.8445C25.1113 17.0778 24.7335 16.3222 24.0668 15.9556C23.3668 15.5778 22.889 14.8445 22.889 14ZM16.7779 18.5556L14.0001 16.7778L11.2224 18.5667C10.8001 18.8334 10.2557 18.4445 10.389 17.9556L11.2224 14.7556L8.66682 12.6667C8.58028 12.5952 8.51725 12.4994 8.48593 12.3917C8.45461 12.2839 8.45645 12.1692 8.49122 12.0625C8.52598 11.9558 8.59206 11.8621 8.68085 11.7935C8.76964 11.7248 8.87703 11.6845 8.98904 11.6778L12.2779 11.4889L13.4779 8.43335C13.6668 7.96668 14.3335 7.96668 14.5113 8.43335L15.7113 11.5L19.0001 11.6889C19.5001 11.7222 19.7113 12.3556 19.3224 12.6778L16.7668 14.7667L17.6113 17.9445C17.7446 18.4445 17.2001 18.8334 16.7779 18.5556Z" fill="#F7F7F7"/>
</svg>
