<svg width="28" height="28" viewBox="0 0 28 28" fill="none" xmlns="http://www.w3.org/2000/svg">
<path d="M20.1109 5.66666C17.9443 5.66666 15.6109 6.1111 13.9998 7.33332C12.3887 6.1111 10.0554 5.66666 7.8887 5.66666C6.27759 5.66666 4.56648 5.9111 3.13314 6.54443C2.32203 6.9111 1.77759 7.69999 1.77759 8.59999V21.1333C1.77759 22.5778 3.13314 23.6444 4.53314 23.2889C5.62203 23.0111 6.77759 22.8889 7.8887 22.8889C9.62203 22.8889 11.4665 23.1778 12.9554 23.9111C13.622 24.2444 14.3776 24.2444 15.0331 23.9111C16.522 23.1667 18.3665 22.8889 20.0998 22.8889C21.2109 22.8889 22.3665 23.0111 23.4554 23.2889C24.8554 23.6555 26.2109 22.5889 26.2109 21.1333V8.59999C26.2109 7.69999 25.6665 6.9111 24.8554 6.54443C23.4331 5.9111 21.722 5.66666 20.1109 5.66666ZM23.9998 19.8111C23.9998 20.5111 23.3554 21.0222 22.6665 20.9C21.8331 20.7444 20.9665 20.6778 20.1109 20.6778C18.222 20.6778 15.4998 21.4 13.9998 22.3444V9.55555C15.4998 8.6111 18.222 7.88888 20.1109 7.88888C21.1331 7.88888 22.1443 7.98888 23.1109 8.19999C23.622 8.3111 23.9998 8.76666 23.9998 9.28888V19.8111Z" fill="#F7F7F7"/>
<path d="M16.1998 12.9C15.8442 12.9 15.522 12.6778 15.4109 12.3222C15.2664 11.8889 15.5109 11.4111 15.9442 11.2778C17.6553 10.7222 19.8664 10.5445 21.8998 10.7778C22.3553 10.8334 22.6887 11.2445 22.6331 11.7C22.5776 12.1556 22.1664 12.4889 21.7109 12.4334C19.9109 12.2222 17.9442 12.3889 16.4553 12.8667C16.3664 12.8778 16.2775 12.9 16.1998 12.9ZM16.1998 15.8556C15.8442 15.8556 15.522 15.6334 15.4109 15.2778C15.2664 14.8445 15.5109 14.3667 15.9442 14.2334C17.6442 13.6778 19.8664 13.5 21.8998 13.7334C22.3553 13.7889 22.6887 14.2 22.6331 14.6556C22.5776 15.1111 22.1664 15.4445 21.7109 15.3889C19.9109 15.1778 17.9442 15.3445 16.4553 15.8222C16.3718 15.8435 16.286 15.8547 16.1998 15.8556ZM16.1998 18.8111C15.8442 18.8111 15.522 18.5889 15.4109 18.2334C15.2664 17.8 15.5109 17.3222 15.9442 17.1889C17.6442 16.6334 19.8664 16.4556 21.8998 16.6889C22.3553 16.7445 22.6887 17.1556 22.6331 17.6111C22.5776 18.0667 22.1664 18.3889 21.7109 18.3445C19.9109 18.1334 17.9442 18.3 16.4553 18.7778C16.3718 18.7991 16.286 18.8103 16.1998 18.8111Z" fill="#F7F7F7"/>
</svg>

