<svg width="12" height="20" viewBox="0 0 12 20" fill="none" xmlns="http://www.w3.org/2000/svg">
<path d="M6.7778 8.77778C4.25558 8.12222 3.44447 7.44444 3.44447 6.38889C3.44447 5.17778 4.56669 4.33333 6.44447 4.33333C8.02225 4.33333 8.81114 4.93333 9.10003 5.88889C9.23336 6.33333 9.60003 6.66667 10.0667 6.66667H10.4C11.1334 6.66667 11.6556 5.94444 11.4 5.25556C10.9334 3.94444 9.84447 2.85556 8.11114 2.43333V1.66667C8.11114 0.744444 7.36669 0 6.44447 0C5.52225 0 4.7778 0.744444 4.7778 1.66667V2.4C2.62225 2.86667 0.888916 4.26667 0.888916 6.41111C0.888916 8.97778 3.01114 10.2556 6.11114 11C8.88892 11.6667 9.44447 12.6444 9.44447 13.6778C9.44447 14.4444 8.90003 15.6667 6.44447 15.6667C4.61114 15.6667 3.66669 15.0111 3.30003 14.0778C3.13336 13.6444 2.75558 13.3333 2.30003 13.3333H1.98892C1.24447 13.3333 0.722249 14.0889 1.00003 14.7778C1.63336 16.3222 3.11114 17.2333 4.7778 17.5889V18.3333C4.7778 19.2556 5.52225 20 6.44447 20C7.36669 20 8.11114 19.2556 8.11114 18.3333V17.6111C10.2778 17.2 12 15.9444 12 13.6667C12 10.5111 9.30003 9.43333 6.7778 8.77778Z" fill="#F7F7F7"/>
</svg>





