<svg width="24" height="24" viewBox="0 0 24 24" fill="none" xmlns="http://www.w3.org/2000/svg">
<path d="M12 6.50005C14.76 6.50005 17 8.74005 17 11.5001C17 12.0101 16.9 12.5001 16.76 12.9601L19.82 16.0201C21.21 14.7901 22.31 13.2501 23 11.4901C21.27 7.11005 17 4.00005 12 4.00005C10.73 4.00005 9.51 4.20005 8.36 4.57005L10.53 6.74005C11 6.60005 11.49 6.50005 12 6.50005ZM2.71 3.16005C2.6173 3.25257 2.54375 3.36246 2.49357 3.48343C2.44339 3.6044 2.41756 3.73409 2.41756 3.86505C2.41756 3.99602 2.44339 4.1257 2.49357 4.24668C2.54375 4.36765 2.6173 4.47754 2.71 4.57005L4.68 6.54005C3.03792 7.84044 1.76844 9.55148 1 11.5001C2.73 15.8901 7 19.0001 12 19.0001C13.52 19.0001 14.97 18.7001 16.31 18.1801L19.03 20.9001C19.217 21.087 19.4706 21.1921 19.735 21.1921C19.9994 21.1921 20.253 21.087 20.44 20.9001C20.627 20.7131 20.732 20.4595 20.732 20.1951C20.732 19.9306 20.627 19.677 20.44 19.4901L4.13 3.16005C3.74 2.77005 3.1 2.77005 2.71 3.16005ZM12 16.5001C9.24 16.5001 7 14.2601 7 11.5001C7 10.7301 7.18 10.0001 7.49 9.36005L9.06 10.9301C9.03 11.1101 9 11.3001 9 11.5001C9 13.1601 10.34 14.5001 12 14.5001C12.2 14.5001 12.38 14.4701 12.57 14.4301L14.14 16.0001C13.49 16.3201 12.77 16.5001 12 16.5001ZM14.97 11.1701C14.8983 10.4944 14.5971 9.86379 14.1167 9.38336C13.6363 8.90293 13.0056 8.60175 12.33 8.53005L14.97 11.1701Z" fill="black"/>
</svg>

