<svg width="32" height="32" viewBox="0 0 32 32" fill="none" xmlns="http://www.w3.org/2000/svg">
<path fill-rule="evenodd" clip-rule="evenodd" d="M9.25001 12.9998C9.25012 9.27197 12.2722 6.25 16 6.25C19.7279 6.25 22.75 9.27208 22.75 13L22.7498 13.0492V13.75C22.7498 15.8731 23.5508 17.8074 24.8684 19.2699C25.0349 19.4547 25.0989 19.71 25.0393 19.9516C24.9797 20.1931 24.8042 20.3893 24.5709 20.4755C23.0269 21.0455 21.4105 21.4659 19.7396 21.7192C19.7465 21.812 19.75 21.9056 19.75 22C19.75 24.0711 18.0711 25.75 16 25.75C13.9289 25.75 12.25 24.0711 12.25 22C12.25 21.9056 12.2535 21.812 12.2604 21.7192C10.5893 21.4659 8.97287 21.0455 7.42875 20.4755C7.19539 20.3893 7.01992 20.1931 6.96033 19.9516C6.90073 19.71 6.96476 19.4547 7.13126 19.2699C8.44879 17.8074 9.24981 15.8731 9.24981 13.75L9.25001 12.9998ZM13.7522 21.8993C13.7508 21.9326 13.75 21.9662 13.75 22C13.75 23.2426 14.7574 24.25 16 24.25C17.2427 24.25 18.25 23.2426 18.25 22C18.25 21.9662 18.2493 21.9326 18.2478 21.8992C17.5072 21.9659 16.7574 22 15.9998 22C15.2424 22 14.4927 21.966 13.7522 21.8993Z" fill="black"/>
</svg>
