<svg width="28" height="28" viewBox="0 0 28 28" fill="none" xmlns="http://www.w3.org/2000/svg">
<path d="M16.2221 10.6666H11.7776C11.1665 10.6666 10.6665 10.1666 10.6665 9.55554C10.6665 8.94443 11.1665 8.44443 11.7776 8.44443H16.2221C16.8332 8.44443 17.3332 8.94443 17.3332 9.55554C17.3332 10.1666 16.8332 10.6666 16.2221 10.6666ZM16.2221 14H11.7776C11.1665 14 10.6665 13.5 10.6665 12.8889C10.6665 12.2778 11.1665 11.7778 11.7776 11.7778H16.2221C16.8332 11.7778 17.3332 12.2778 17.3332 12.8889C17.3332 13.5 16.8332 14 16.2221 14Z" fill="#F7F7F7"/>
<path d="M22.3332 4.55555L20.6665 2.88889L18.9999 4.55555L17.3332 2.88889L15.6665 4.55555L13.9999 2.88889L12.3332 4.55555L10.6665 2.88889L8.99988 4.55555L7.33321 2.88889V18.4444H5.11099C4.49988 18.4444 3.99988 18.9444 3.99988 19.5556V21.7778C3.99988 23.6222 5.48877 25.1111 7.33321 25.1111H20.6665C22.511 25.1111 23.9999 23.6222 23.9999 21.7778V2.88889L22.3332 4.55555ZM17.3332 22.8889H7.33321C6.7221 22.8889 6.2221 22.3889 6.2221 21.7778V20.6667H17.3332V22.8889ZM21.7777 21.7778C21.7777 22.3889 21.2777 22.8889 20.6665 22.8889C20.0554 22.8889 19.5554 22.3889 19.5554 21.7778V19.5556C19.5554 18.9444 19.0554 18.4444 18.4443 18.4444H9.55543V6.22222H21.7777V21.7778Z" fill="#F7F7F7"/>
<path d="M19.5553 10.6666C20.169 10.6666 20.6664 10.1692 20.6664 9.55554C20.6664 8.94189 20.169 8.44443 19.5553 8.44443C18.9417 8.44443 18.4442 8.94189 18.4442 9.55554C18.4442 10.1692 18.9417 10.6666 19.5553 10.6666Z" fill="#F7F7F7"/>
<path d="M19.5553 14C20.169 14 20.6664 13.5025 20.6664 12.8889C20.6664 12.2752 20.169 11.7777 19.5553 11.7777C18.9417 11.7777 18.4442 12.2752 18.4442 12.8889C18.4442 13.5025 18.9417 14 19.5553 14Z" fill="#F7F7F7"/>
</svg>

