<svg width="28" height="28" viewBox="0 0 28 28" fill="none" xmlns="http://www.w3.org/2000/svg">
<path d="M21.6888 7.34445C21.4665 6.6889 20.8443 6.22223 20.111 6.22223H7.88877C7.15543 6.22223 6.54432 6.6889 6.31099 7.34445L4.1221 13.6445C4.04432 13.8778 3.99988 14.1222 3.99988 14.3778V22.3333C3.99988 23.2556 4.74432 24 5.66654 24C6.58877 24 7.33321 23.2556 7.33321 22.3333V21.7778H20.6665V22.3333C20.6665 23.2445 21.411 24 22.3332 24C23.2443 24 23.9999 23.2556 23.9999 22.3333V14.3778C23.9999 14.1333 23.9554 13.8778 23.8777 13.6445L21.6888 7.34445ZM7.88877 18.4445C6.96654 18.4445 6.2221 17.7 6.2221 16.7778C6.2221 15.8556 6.96654 15.1111 7.88877 15.1111C8.81099 15.1111 9.55543 15.8556 9.55543 16.7778C9.55543 17.7 8.81099 18.4445 7.88877 18.4445ZM20.111 18.4445C19.1888 18.4445 18.4443 17.7 18.4443 16.7778C18.4443 15.8556 19.1888 15.1111 20.111 15.1111C21.0332 15.1111 21.7777 15.8556 21.7777 16.7778C21.7777 17.7 21.0332 18.4445 20.111 18.4445ZM6.2221 12.8889L7.63321 8.64445C7.78877 8.20001 8.21099 7.8889 8.68877 7.8889H19.311C19.7888 7.8889 20.211 8.20001 20.3665 8.64445L21.7777 12.8889H6.2221Z" fill="#F7F7F7"/>
</svg>
