<svg width="28" height="28" viewBox="0 0 28 28" fill="none" xmlns="http://www.w3.org/2000/svg">
<path d="M14.0001 26.2222C20.3334 26.2222 25.5445 21.4 26.1667 15.2222C26.2334 14.5667 25.7112 14 25.0556 14C24.4889 14 24.0112 14.4222 23.9556 14.9778C23.4667 20.0444 19.1889 24 14.0001 24C10.5334 24 7.47783 22.2333 5.68894 19.5555H7.33339C7.9445 19.5555 8.4445 19.0556 8.4445 18.4444C8.4445 17.8333 7.9445 17.3333 7.33339 17.3333H2.88894C2.27783 17.3333 1.77783 17.8333 1.77783 18.4444V22.8889C1.77783 23.5 2.27783 24 2.88894 24C3.50005 24 4.00005 23.5 4.00005 22.8889V21.0333C6.21117 24.1667 9.86672 26.2222 14.0001 26.2222ZM14.0001 1.77777C7.66672 1.77777 2.45561 6.59999 1.83339 12.7778C1.77783 13.4333 2.28894 14 2.9445 14C3.51117 14 3.98894 13.5778 4.0445 13.0222C4.53339 7.95555 8.81116 3.99999 14.0001 3.99999C17.4667 3.99999 20.5223 5.76666 22.3112 8.44444H20.6667C20.0556 8.44444 19.5556 8.94444 19.5556 9.55555C19.5556 10.1667 20.0556 10.6667 20.6667 10.6667H25.1112C25.7223 10.6667 26.2223 10.1667 26.2223 9.55555V5.11111C26.2223 4.49999 25.7223 3.99999 25.1112 3.99999C24.5001 3.99999 24.0001 4.49999 24.0001 5.11111V6.96666C22.8716 5.36309 21.374 4.05453 19.6335 3.15143C17.893 2.24832 15.9609 1.77718 14.0001 1.77777ZM13.0223 7.19999C13.0223 6.65555 13.4667 6.22222 14.0001 6.22222C14.5334 6.22222 14.9778 6.65555 14.9778 7.19999V7.61111C16.1667 7.82222 16.9223 8.45555 17.3778 9.05555C17.7556 9.54444 17.5556 10.2556 16.9778 10.5C16.5778 10.6667 16.1112 10.5333 15.8445 10.1889C15.5334 9.76666 14.9778 9.33333 14.0667 9.33333C13.2889 9.33333 12.0556 9.74444 12.0556 10.8778C12.0556 11.9333 13.0112 12.3333 14.9889 12.9889C17.6556 13.9111 18.3334 15.2667 18.3334 16.8222C18.3334 19.7333 15.5556 20.3 14.9778 20.4V20.8111C14.9778 21.3444 14.5445 21.7889 14.0001 21.7889C13.4556 21.7889 13.0223 21.3555 13.0223 20.8111V20.3444C12.3223 20.1778 10.8778 19.6667 10.0334 18.0111C9.77783 17.5222 10.0667 16.8778 10.5778 16.6778C11.0334 16.5 11.5778 16.6667 11.8112 17.1C12.1667 17.7778 12.8667 18.6222 14.1667 18.6222C15.2001 18.6222 16.3667 18.0889 16.3667 16.8333C16.3667 15.7667 15.5889 15.2111 13.8334 14.5778C12.6112 14.1444 10.1112 13.4333 10.1112 10.9C10.1112 10.7889 10.1223 8.23333 13.0223 7.61111V7.19999Z" fill="#F7F7F7"/>
</svg>

