<svg width="78" height="78" viewBox="0 0 78 78" fill="none" xmlns="http://www.w3.org/2000/svg">
<path d="M40.1943 71.3543L40.1845 71.3547C38.6991 71.4141 37.4225 71.7654 36.6282 72.4467C36.2213 72.7957 35.936 73.237 35.8351 73.7622C35.7348 74.2841 35.8258 74.8402 36.0837 75.4077C36.3844 76.0693 36.9562 76.4548 37.5903 76.6708C38.2178 76.8844 38.9488 76.9484 39.6621 76.9457C40.3804 76.943 41.1145 76.8721 41.76 76.7967C41.9823 76.7708 42.1906 76.7448 42.384 76.7206C42.7669 76.6728 43.0913 76.6324 43.3495 76.6139L43.3522 76.6137C44.8748 76.4966 46.3966 76.2624 47.9175 75.9114L47.921 75.9106C67.9939 71.1258 80.5936 51.1713 76.3936 30.8714C70.7911 3.44701 38.1194 -8.68696 15.9472 8.35001C-4.82022 24.2178 -4.11933 55.1431 17.3477 70.0767L17.3477 70.0768L17.3559 70.0823C19.96 71.8184 22.9621 73.1489 25.8535 74.4304C26.0781 74.5299 26.302 74.6292 26.5249 74.7283C27.3727 75.1186 28.2306 75.1691 28.9505 74.8992C29.6746 74.6276 30.2191 74.0445 30.4355 73.2605C30.6944 72.4136 30.6453 71.6294 30.2545 70.9781C29.8695 70.3364 29.2009 69.9043 28.381 69.6509C28.2331 69.6012 28.0541 69.5249 27.8491 69.437L27.8375 69.4321C27.6473 69.3505 27.4333 69.2588 27.2426 69.1946C11.9401 63.5226 2.983 46.3938 7.17629 30.6407L7.17711 30.6375C11.9441 12.2506 30.5461 1.59748 48.6896 7.38073L48.6921 7.38151C61.7527 11.47 69.6743 20.7537 71.3771 34.2579C72.2308 41.2584 71.2895 47.4931 68.6598 52.9081C66.0297 58.3238 61.6956 62.9504 55.7153 66.7094L55.711 66.7122C50.9571 69.7682 45.751 71.241 40.1943 71.3543Z" fill="#CFE5FF" stroke="#CFE5FF" stroke-miterlimit="10"/>
<path d="M45.0315 53.7897C47.5958 53.7897 49.7879 52.8798 51.6078 51.0599C53.4277 49.2401 54.3376 47.048 54.3376 44.4836C54.3376 41.9193 53.4277 39.7271 51.6078 37.9073C49.7879 36.0874 47.5958 35.1775 45.0315 35.1775H32.6233C31.7754 35.1775 31.0516 34.8776 30.4519 34.2779C29.8315 33.6575 29.5213 32.9233 29.5213 32.0754C29.5213 31.2276 29.8315 30.5037 30.4519 29.904C31.0516 29.2836 31.7754 28.9734 32.6233 28.9734H38.9515H51.3596C53.0043 28.9734 54.3376 27.6401 54.3376 25.9954V25.7473C54.3376 24.1026 53.0043 22.7693 51.3596 22.7693H41.4331H38.9515H36.4698H32.6233C30.0589 22.7693 27.8668 23.6793 26.047 25.4991C24.2271 27.319 23.3172 29.5111 23.3172 32.0754C23.3172 34.6398 24.2271 36.8319 26.047 38.6518C27.8668 40.4716 30.0589 41.3816 32.6233 41.3816H45.0315C45.8794 41.3816 46.6135 41.6918 47.2339 42.3122C47.8336 42.9119 48.1335 43.6357 48.1335 44.4836C48.1335 45.3315 47.8336 46.0657 47.2339 46.6861C46.6135 47.2858 45.8794 47.5857 45.0315 47.5857H26.2951C24.6505 47.5857 23.3172 48.9189 23.3172 50.5636V50.8118C23.3172 52.4565 24.6505 53.7897 26.2951 53.7897H36.4698H38.9515H41.4331H45.0315Z" fill="#CFE5FF"/>
<path d="M38.9515 22.7693H36.4698V21.6378C36.4698 20.5419 37.1887 19.5757 38.2384 19.2608C38.7035 19.1213 39.1994 19.1213 39.6646 19.2608C40.7142 19.5757 41.4331 20.5419 41.4331 21.6378V22.7693H38.9515Z" fill="#CFE5FF"/>
<path d="M36.4698 53.7897H38.9515H41.4331V54.5218C41.4331 55.7968 40.467 56.8643 39.1984 56.9912C39.0342 57.0076 38.8687 57.0076 38.7045 56.9912C37.4359 56.8643 36.4698 55.7968 36.4698 54.5218V53.7897Z" fill="#CFE5FF"/>
</svg>
