<svg width="147" height="29" viewBox="0 0 147 29" fill="none" xmlns="http://www.w3.org/2000/svg">
<path d="M14.6973 26.767C13.6097 26.8105 12.9716 27.2812 13.3125 28.0312C13.6534 28.7812 15.2628 28.4202 15.8719 28.3767C16.4374 28.3332 17.003 28.2462 17.5686 28.1157C25.0513 26.332 29.7498 18.8927 28.1836 11.3229C26.0954 1.0994 13.9142 -3.42506 5.64835 2.92659C-2.09544 8.84319 -1.83441 20.3719 6.1704 25.9404C7.21451 26.6365 8.43264 27.1586 9.60725 27.6806C10.1728 27.9416 10.6949 27.7241 10.8254 27.2456C10.9994 26.68 10.7384 26.2885 10.1728 26.1145C10.0423 26.0709 9.86828 25.9839 9.73776 25.9404C3.86467 23.7652 0.427817 17.196 2.03748 11.1489C3.86467 4.10121 10.9994 0.0117905 17.9601 2.23052C22.9631 3.79668 26.0084 7.36404 26.661 12.5411C27.3136 17.8921 25.2253 22.112 20.6574 24.9833C18.8302 26.158 16.829 26.7235 14.6973 26.767Z" fill="#124A73"/>
<path d="M16.5208 19.9427C17.4895 19.9427 18.3176 19.5989 19.0051 18.9114C19.6926 18.2239 20.0364 17.3958 20.0364 16.427C20.0364 15.4583 19.6926 14.6302 19.0051 13.9427C18.3176 13.2552 17.4895 12.9114 16.5208 12.9114H11.8333C11.5129 12.9114 11.2395 12.7981 11.0129 12.5716C10.7786 12.3372 10.6614 12.0599 10.6614 11.7395C10.6614 11.4192 10.7786 11.1458 11.0129 10.9192C11.2395 10.6849 11.5129 10.5677 11.8333 10.5677H14.2239H18.9114C19.5327 10.5677 20.0364 10.064 20.0364 9.44267V9.34892C20.0364 8.7276 19.5327 8.22392 18.9114 8.22392H15.1614H14.2239H13.2864H11.8333C10.8645 8.22392 10.0364 8.56767 9.34888 9.25517C8.66138 9.94267 8.31763 10.7708 8.31763 11.7395C8.31763 12.7083 8.66138 13.5364 9.34888 14.2239C10.0364 14.9114 10.8645 15.2552 11.8333 15.2552H16.5208C16.8411 15.2552 17.1184 15.3724 17.3528 15.6067C17.5793 15.8333 17.6926 16.1067 17.6926 16.427C17.6926 16.7474 17.5793 17.0247 17.3528 17.2591C17.1184 17.4856 16.8411 17.5989 16.5208 17.5989H9.44263C8.82131 17.5989 8.31763 18.1026 8.31763 18.7239V18.8177C8.31763 19.439 8.82131 19.9427 9.44263 19.9427H13.2864H14.2239H15.1614H16.5208Z" fill="#124A73"/>
<path d="M14.2239 8.22392H13.2864V7.79645C13.2864 7.38244 13.5579 7.01745 13.9545 6.89849C14.1302 6.84577 14.3175 6.84577 14.4933 6.89849C14.8898 7.01745 15.1614 7.38244 15.1614 7.79645V8.22392H14.2239Z" fill="#124A73"/>
<path d="M13.2864 19.9427H14.2239H15.1614V20.2192C15.1614 20.7009 14.7964 21.1042 14.3172 21.1521C14.2551 21.1583 14.1926 21.1583 14.1306 21.1521C13.6513 21.1042 13.2864 20.7009 13.2864 20.2192V19.9427Z" fill="#124A73"/>
<path d="M31.4844 15.6109C31.4844 13.3453 32.2852 11.4117 33.8868 9.81015C35.4883 8.20859 37.4219 7.40781 39.6876 7.40781H46.7657C47.387 7.40781 47.8907 7.91149 47.8907 8.53281V8.62656C47.8907 9.24788 47.387 9.75156 46.7657 9.75156H39.6876C38.0704 9.75156 36.6915 10.3219 35.5508 11.4625C35.0376 11.9757 34.6387 12.5363 34.3539 13.1442C34.0539 13.7849 34.591 14.4391 35.2985 14.4391H44.4219C45.0433 14.4391 45.5469 14.9427 45.5469 15.5641V15.6578C45.5469 16.2791 45.0433 16.7828 44.4219 16.7828H33.9476C33.9384 16.7828 33.9293 16.7809 33.9209 16.7771C33.8773 16.7578 33.8282 16.7897 33.8282 16.8374V22.6891C33.8282 23.3104 33.3245 23.8141 32.7032 23.8141H32.6094C31.9881 23.8141 31.4844 23.3104 31.4844 22.6891V15.6109Z" fill="#124A73"/>
<path d="M50.2813 12.0953C50.9026 12.0953 51.4063 12.599 51.4063 13.2203V22.6891C51.4063 23.3104 50.9026 23.8141 50.2813 23.8141H50.1876C49.5662 23.8141 49.0626 23.3104 49.0626 22.6891V13.2203C49.0626 12.599 49.5662 12.0953 50.1876 12.0953H50.2813ZM50.1876 9.75156C49.5662 9.75156 49.0626 9.24788 49.0626 8.62656V8.53281C49.0626 7.91149 49.5662 7.40781 50.1876 7.40781H50.2813C50.9026 7.40781 51.4063 7.91149 51.4063 8.53281V8.62656C51.4063 9.24788 50.9026 9.75156 50.2813 9.75156H50.1876Z" fill="#124A73"/>
<path d="M54.9219 17.9547V22.6891C54.9219 23.3104 54.4183 23.8141 53.7969 23.8141H53.7032C53.0819 23.8141 52.5782 23.3104 52.5782 22.6891V17.9547C52.5782 16.3375 53.1485 14.9586 54.2891 13.818C55.4376 12.6695 56.8204 12.0953 58.4376 12.0953C60.0547 12.0953 61.4337 12.6695 62.5743 13.818C63.7227 14.9586 64.2969 16.3375 64.2969 17.9547V22.6891C64.2969 23.3104 63.7933 23.8141 63.1719 23.8141H63.0782C62.4569 23.8141 61.9532 23.3104 61.9532 22.6891V17.9547C61.9532 16.9859 61.6094 16.1578 60.9219 15.4703C60.2344 14.7828 59.4063 14.4391 58.4376 14.4391C57.4688 14.4391 56.6407 14.7828 55.9532 15.4703C55.2657 16.1578 54.9219 16.9859 54.9219 17.9547Z" fill="#124A73"/>
<path d="M71.3282 14.4391C70.3594 14.4391 69.5313 14.7828 68.8438 15.4703C68.1563 16.1578 67.8126 16.9859 67.8126 17.9547C67.8126 18.9234 68.1563 19.7516 68.8438 20.4391C69.5313 21.1266 70.3594 21.4703 71.3282 21.4703C72.2969 21.4703 73.1251 21.1266 73.8126 20.4391C74.5001 19.7516 74.8438 18.9234 74.8438 17.9547C74.8438 16.9859 74.5001 16.1578 73.8126 15.4703C73.1251 14.7828 72.2969 14.4391 71.3282 14.4391ZM74.8438 23.4309C74.8438 23.1132 74.4734 22.9268 74.1975 23.0842C73.3443 23.5708 72.3878 23.8141 71.3282 23.8141C69.711 23.8141 68.3282 23.2437 67.1797 22.1031C66.0391 20.9547 65.4688 19.5719 65.4688 17.9547C65.4688 16.3375 66.0391 14.9586 67.1797 13.818C68.3282 12.6695 69.711 12.0953 71.3282 12.0953C72.9454 12.0953 74.3243 12.6695 75.4649 13.818C76.6133 14.9586 77.1876 16.3375 77.1876 17.9547V22.6891C77.1876 23.3104 76.6839 23.8141 76.0626 23.8141H75.227C75.0154 23.8141 74.8438 23.6425 74.8438 23.4309Z" fill="#124A73"/>
<path d="M80.7032 17.9547V22.6891C80.7032 23.3104 80.1995 23.8141 79.5782 23.8141H79.4844C78.8631 23.8141 78.3594 23.3104 78.3594 22.6891V17.9547C78.3594 16.3375 78.9297 14.9586 80.0704 13.818C81.2188 12.6695 82.6016 12.0953 84.2188 12.0953C85.836 12.0953 87.2149 12.6695 88.3555 13.818C89.504 14.9586 90.0782 16.3375 90.0782 17.9547V22.6891C90.0782 23.3104 89.5745 23.8141 88.9532 23.8141H88.8594C88.2381 23.8141 87.7344 23.3104 87.7344 22.6891V17.9547C87.7344 16.9859 87.3907 16.1578 86.7032 15.4703C86.0157 14.7828 85.1876 14.4391 84.2188 14.4391C83.2501 14.4391 82.4219 14.7828 81.7344 15.4703C81.0469 16.1578 80.7032 16.9859 80.7032 17.9547Z" fill="#124A73"/>
<path d="M107.609 17.9547C106.988 17.9547 106.484 18.4584 106.484 19.0797V22.6891C106.484 23.3104 105.981 23.8141 105.359 23.8141H105.266C104.644 23.8141 104.141 23.3104 104.141 22.6891V15.6109C104.141 13.3453 104.941 11.4117 106.543 9.81015C108.145 8.20859 110.078 7.40781 112.344 7.40781C114.609 7.40781 116.543 8.20859 118.145 9.81015C119.746 11.4117 120.547 13.3453 120.547 15.6109V22.6891C120.547 23.3104 120.043 23.8141 119.422 23.8141H119.328C118.707 23.8141 118.203 23.3104 118.203 22.6891V19.0797C118.203 18.4584 117.7 17.9547 117.078 17.9547H107.609ZM117.078 15.6109C117.7 15.6109 118.216 15.1029 118.105 14.4917C117.896 13.3479 117.354 12.3421 116.481 11.4742C115.34 10.3258 113.961 9.75156 112.344 9.75156C110.727 9.75156 109.344 10.3258 108.195 11.4742C107.328 12.3421 106.79 13.3479 106.582 14.4916C106.471 15.1029 106.988 15.6109 107.609 15.6109H117.078Z" fill="#124A73"/>
<path d="M127.578 21.4703C128.547 21.4703 129.375 21.1266 130.063 20.4391C130.75 19.7516 131.094 18.9234 131.094 17.9547C131.094 16.9859 130.75 16.1578 130.063 15.4703C129.375 14.7828 128.547 14.4391 127.578 14.4391C126.609 14.4391 125.781 14.7828 125.094 15.4703C124.406 16.1578 124.063 16.9859 124.063 17.9547C124.063 18.9234 124.406 19.7516 125.094 20.4391C125.781 21.1266 126.609 21.4703 127.578 21.4703ZM121.719 17.9547C121.719 16.3375 122.289 14.9586 123.43 13.818C124.578 12.6695 125.961 12.0953 127.578 12.0953C129.195 12.0953 130.574 12.6695 131.715 13.818C132.863 14.9586 133.438 16.3375 133.438 17.9547C133.438 19.5719 132.863 20.9547 131.715 22.1031C130.574 23.2437 129.195 23.8141 127.578 23.8141C127.061 23.8141 126.569 23.7562 126.102 23.6405C125.196 23.4164 124.063 24.0026 124.063 24.9354V27.3766C124.063 27.9979 123.559 28.5016 122.938 28.5016H122.844C122.222 28.5016 121.719 27.9979 121.719 27.3766V17.9547Z" fill="#124A73"/>
<path d="M140.469 21.4703C141.438 21.4703 142.266 21.1266 142.953 20.4391C143.641 19.7516 143.984 18.9234 143.984 17.9547C143.984 16.9859 143.641 16.1578 142.953 15.4703C142.266 14.7828 141.438 14.4391 140.469 14.4391C139.5 14.4391 138.672 14.7828 137.984 15.4703C137.297 16.1578 136.953 16.9859 136.953 17.9547C136.953 18.9234 137.297 19.7516 137.984 20.4391C138.672 21.1266 139.5 21.4703 140.469 21.4703ZM134.609 17.9547C134.609 16.3375 135.18 14.9586 136.32 13.818C137.469 12.6695 138.852 12.0953 140.469 12.0953C142.086 12.0953 143.465 12.6695 144.606 13.818C145.754 14.9586 146.328 16.3375 146.328 17.9547C146.328 19.5719 145.754 20.9547 144.606 22.1031C143.465 23.2437 142.086 23.8141 140.469 23.8141C139.952 23.8141 139.46 23.7562 138.992 23.6405C138.087 23.4164 136.953 24.0026 136.953 24.9354V27.3766C136.953 27.9979 136.45 28.5016 135.828 28.5016H135.734C135.113 28.5016 134.609 27.9979 134.609 27.3766V17.9547Z" fill="#124A73"/>
<path d="M94.7891 23.9135C93.8204 23.9135 92.9922 23.5697 92.3047 22.8822C91.6172 22.1947 91.2735 21.3666 91.2735 20.3978C91.2735 19.4291 91.6172 18.601 92.3047 17.9135C92.9922 17.226 93.8204 16.8822 94.7891 16.8822H99.4766C99.7969 16.8822 100.07 16.7689 100.297 16.5424C100.531 16.308 100.648 16.0307 100.648 15.7103C100.648 15.39 100.531 15.1166 100.297 14.89C100.07 14.6557 99.7969 14.5385 99.4766 14.5385H97.086H92.3985C91.7772 14.5385 91.2735 14.0348 91.2735 13.4135V13.3197C91.2735 12.6984 91.7772 12.1947 92.3985 12.1947H96.1485H97.086H98.0235H99.4766C100.445 12.1947 101.273 12.5385 101.961 13.226C102.648 13.9135 102.992 14.7416 102.992 15.7103C102.992 16.6791 102.648 17.5072 101.961 18.1947C101.273 18.8822 100.445 19.226 99.4766 19.226H94.7891C94.4688 19.226 94.1915 19.3432 93.9571 19.5775C93.7305 19.8041 93.6172 20.0775 93.6172 20.3978C93.6172 20.7182 93.7305 20.9955 93.9571 21.2299C94.1915 21.4564 94.4688 21.5697 94.7891 21.5697H101.867C102.489 21.5697 102.992 22.0734 102.992 22.6947V22.7885C102.992 23.4098 102.489 23.9135 101.867 23.9135H98.0235H97.086H96.1485H94.7891Z" fill="#124A73"/>
<path d="M97.086 12.1947H98.0235V11.7672C98.0235 11.3532 97.7519 10.9882 97.3554 10.8693C97.1797 10.8166 96.9923 10.8166 96.8166 10.8693C96.4201 10.9882 96.1485 11.3532 96.1485 11.7672V12.1947H97.086Z" fill="#124A73"/>
<path d="M98.0235 23.9135H97.086H96.1485V24.19C96.1485 24.6717 96.5135 25.075 96.9927 25.1229C97.0547 25.1291 97.1172 25.1291 97.1793 25.1229C97.6585 25.075 98.0235 24.6717 98.0235 24.19V23.9135Z" fill="#124A73"/>
</svg>
