<svg width="304" height="165" viewBox="0 0 304 165" fill="none" xmlns="http://www.w3.org/2000/svg">
<path d="M153.194 71.3543L153.185 71.3547C151.699 71.4141 150.423 71.7654 149.628 72.4467C149.221 72.7957 148.936 73.237 148.835 73.7622C148.735 74.2841 148.826 74.8402 149.084 75.4077C149.384 76.0693 149.956 76.4548 150.59 76.6708C151.218 76.8844 151.949 76.9484 152.662 76.9457C153.38 76.943 154.115 76.8721 154.76 76.7967C154.982 76.7708 155.191 76.7448 155.384 76.7206C155.767 76.6728 156.091 76.6324 156.349 76.6139L156.352 76.6137C157.875 76.4966 159.397 76.2624 160.917 75.9114L160.921 75.9106C180.994 71.1258 193.594 51.1713 189.394 30.8714C183.791 3.44701 151.119 -8.68696 128.947 8.35001C108.18 24.2178 108.881 55.1431 130.348 70.0767L130.348 70.0768L130.356 70.0823C132.96 71.8184 135.962 73.1489 138.854 74.4304C139.078 74.5299 139.302 74.6292 139.525 74.7283C140.373 75.1186 141.231 75.1691 141.951 74.8992C142.675 74.6276 143.219 74.0445 143.436 73.2605C143.694 72.4136 143.645 71.6294 143.255 70.9781C142.87 70.3364 142.201 69.9043 141.381 69.6509C141.233 69.6012 141.054 69.5249 140.849 69.437L140.838 69.4321C140.647 69.3505 140.433 69.2588 140.243 69.1946C124.94 63.5226 115.983 46.3938 120.176 30.6407L120.177 30.6375C124.944 12.2506 143.546 1.59748 161.69 7.38073L161.692 7.38151C174.753 11.47 182.674 20.7537 184.377 34.2579C185.231 41.2584 184.289 47.4931 181.66 52.9081C179.03 58.3238 174.696 62.9504 168.715 66.7094L168.711 66.7122C163.957 69.7682 158.751 71.241 153.194 71.3543Z" fill="#CFE5FF" stroke="#CFE5FF" stroke-miterlimit="10"/>
<path d="M158.031 53.7898C160.596 53.7898 162.788 52.8798 164.608 51.06C166.428 49.2401 167.338 47.048 167.338 44.4836C167.338 41.9193 166.428 39.7272 164.608 37.9073C162.788 36.0874 160.596 35.1775 158.031 35.1775H145.623C144.775 35.1775 144.052 34.8776 143.452 34.2779C142.831 33.6575 142.521 32.9234 142.521 32.0755C142.521 31.2276 142.831 30.5038 143.452 29.904C144.052 29.2836 144.775 28.9734 145.623 28.9734H151.951H164.36C166.004 28.9734 167.338 27.6401 167.338 25.9955V25.7473C167.338 24.1026 166.004 22.7693 164.36 22.7693H154.433H151.951H149.47H145.623C143.059 22.7693 140.867 23.6793 139.047 25.4991C137.227 27.319 136.317 29.5111 136.317 32.0755C136.317 34.6398 137.227 36.8319 139.047 38.6518C140.867 40.4717 143.059 41.3816 145.623 41.3816H158.031C158.879 41.3816 159.614 41.6918 160.234 42.3122C160.834 42.9119 161.134 43.6357 161.134 44.4836C161.134 45.3315 160.834 46.0657 160.234 46.6861C159.614 47.2858 158.879 47.5857 158.031 47.5857H139.295C137.65 47.5857 136.317 48.9189 136.317 50.5636V50.8118C136.317 52.4565 137.65 53.7898 139.295 53.7898H149.47H151.951H154.433H158.031Z" fill="#CFE5FF"/>
<path d="M151.951 22.7693H149.47V21.6378C149.47 20.5419 150.189 19.5757 151.238 19.2608C151.704 19.1213 152.199 19.1213 152.665 19.2608C153.714 19.5757 154.433 20.5419 154.433 21.6378V22.7693H151.951Z" fill="#CFE5FF"/>
<path d="M149.47 53.7898H151.951H154.433V54.5219C154.433 55.7968 153.467 56.8643 152.198 56.9912C152.034 57.0076 151.869 57.0076 151.705 56.9912C150.436 56.8643 149.47 55.7968 149.47 54.5219V53.7898Z" fill="#CFE5FF"/>
<path d="M0 130.16C0 124.163 2.11973 119.044 6.35918 114.805C10.5986 110.565 15.717 108.446 21.7143 108.446H40.4506C42.0953 108.446 43.4286 109.779 43.4286 111.424V111.672C43.4286 113.317 42.0953 114.65 40.4506 114.65H21.7143C17.4335 114.65 13.7834 116.159 10.7641 119.179C9.40561 120.537 8.34951 122.021 7.59578 123.63C6.80145 125.326 8.22331 127.058 10.096 127.058H34.2465C35.8912 127.058 37.2245 128.391 37.2245 130.036V130.284C37.2245 131.929 35.8912 133.262 34.2465 133.262H6.52029C6.49588 133.262 6.47174 133.257 6.44943 133.247C6.33405 133.196 6.20408 133.28 6.20408 133.406V148.896C6.20408 150.541 4.8708 151.874 3.22612 151.874H2.97796C1.33328 151.874 0 150.541 0 148.896V130.16Z" fill="#CFE5FF"/>
<path d="M49.7567 120.854C51.4014 120.854 52.7347 122.187 52.7347 123.832V148.896C52.7347 150.541 51.4014 151.874 49.7567 151.874H49.5086C47.8639 151.874 46.5306 150.541 46.5306 148.896V123.832C46.5306 122.187 47.8639 120.854 49.5086 120.854H49.7567ZM49.5086 114.65C47.8639 114.65 46.5306 113.317 46.5306 111.672V111.424C46.5306 109.779 47.8639 108.446 49.5086 108.446H49.7567C51.4014 108.446 52.7347 109.779 52.7347 111.424V111.672C52.7347 113.317 51.4014 114.65 49.7567 114.65H49.5086Z" fill="#CFE5FF"/>
<path d="M62.0408 136.364V148.896C62.0408 150.541 60.7075 151.874 59.0629 151.874H58.8147C57.17 151.874 55.8367 150.541 55.8367 148.896V136.364C55.8367 132.083 57.3464 128.433 60.3657 125.414C63.4057 122.374 67.0661 120.854 71.3469 120.854C75.6278 120.854 79.2778 122.374 82.2971 125.414C85.3371 128.433 86.8571 132.083 86.8571 136.364V148.896C86.8571 150.541 85.5239 151.874 83.8792 151.874H83.631C81.9863 151.874 80.6531 150.541 80.6531 148.896V136.364C80.6531 133.8 79.7431 131.608 77.9233 129.788C76.1034 127.968 73.9113 127.058 71.3469 127.058C68.7826 127.058 66.5905 127.968 64.7706 129.788C62.9507 131.608 62.0408 133.8 62.0408 136.364Z" fill="#CFE5FF"/>
<path d="M105.469 127.058C102.905 127.058 100.713 127.968 98.8931 129.788C97.0732 131.608 96.1633 133.8 96.1633 136.364C96.1633 138.928 97.0732 141.121 98.8931 142.94C100.713 144.76 102.905 145.67 105.469 145.67C108.034 145.67 110.226 144.76 112.046 142.94C113.866 141.121 114.776 138.928 114.776 136.364C114.776 133.8 113.866 131.608 112.046 129.788C110.226 127.968 108.034 127.058 105.469 127.058ZM114.776 150.86C114.776 150.019 113.795 149.526 113.065 149.942C110.806 151.23 108.274 151.874 105.469 151.874C101.189 151.874 97.5282 150.365 94.4882 147.345C91.4688 144.305 89.9592 140.645 89.9592 136.364C89.9592 132.083 91.4688 128.433 94.4882 125.414C97.5282 122.374 101.189 120.854 105.469 120.854C109.75 120.854 113.4 122.374 116.42 125.414C119.46 128.433 120.98 132.083 120.98 136.364V148.896C120.98 150.541 119.646 151.874 118.002 151.874H115.79C115.23 151.874 114.776 151.42 114.776 150.86Z" fill="#CFE5FF"/>
<path d="M130.286 136.364V148.896C130.286 150.541 128.952 151.874 127.308 151.874H127.06C125.415 151.874 124.082 150.541 124.082 148.896V136.364C124.082 132.083 125.591 128.433 128.611 125.414C131.651 122.374 135.311 120.854 139.592 120.854C143.873 120.854 147.523 122.374 150.542 125.414C153.582 128.433 155.102 132.083 155.102 136.364V148.896C155.102 150.541 153.769 151.874 152.124 151.874H151.876C150.231 151.874 148.898 150.541 148.898 148.896V136.364C148.898 133.8 147.988 131.608 146.168 129.788C144.348 127.968 142.156 127.058 139.592 127.058C137.027 127.058 134.835 127.968 133.016 129.788C131.196 131.608 130.286 133.8 130.286 136.364Z" fill="#CFE5FF"/>
<path d="M201.509 136.364C199.864 136.364 198.531 137.697 198.531 139.342V148.896C198.531 150.541 197.197 151.874 195.553 151.874H195.304C193.66 151.874 192.327 150.541 192.327 148.896V130.16C192.327 124.163 194.446 119.044 198.686 114.805C202.925 110.565 208.044 108.446 214.041 108.446C220.038 108.446 225.156 110.565 229.396 114.805C233.635 119.044 235.755 124.163 235.755 130.16V148.896C235.755 150.541 234.422 151.874 232.777 151.874H232.529C230.884 151.874 229.551 150.541 229.551 148.896V139.342C229.551 137.697 228.218 136.364 226.573 136.364H201.509ZM226.573 130.16C228.218 130.16 229.586 128.815 229.29 127.197C228.737 124.17 227.304 121.507 224.991 119.21C221.972 116.17 218.322 114.65 214.041 114.65C209.76 114.65 206.1 116.17 203.06 119.21C200.762 121.507 199.339 124.17 198.79 127.197C198.496 128.815 199.864 130.16 201.509 130.16H226.573Z" fill="#CFE5FF"/>
<path d="M254.367 145.67C256.932 145.67 259.124 144.76 260.944 142.94C262.764 141.121 263.673 138.928 263.673 136.364C263.673 133.8 262.764 131.608 260.944 129.788C259.124 127.968 256.932 127.058 254.367 127.058C251.803 127.058 249.611 127.968 247.791 129.788C245.971 131.608 245.061 133.8 245.061 136.364C245.061 138.928 245.971 141.121 247.791 142.94C249.611 144.76 251.803 145.67 254.367 145.67ZM238.857 136.364C238.857 132.083 240.367 128.433 243.386 125.414C246.426 122.374 250.087 120.854 254.367 120.854C258.648 120.854 262.298 122.374 265.318 125.414C268.358 128.433 269.878 132.083 269.878 136.364C269.878 140.645 268.358 144.305 265.318 147.345C262.298 150.365 258.648 151.874 254.367 151.874C252.999 151.874 251.696 151.721 250.459 151.415C248.062 150.822 245.061 152.373 245.061 154.843V161.305C245.061 162.949 243.728 164.283 242.083 164.283H241.835C240.19 164.283 238.857 162.949 238.857 161.305V136.364Z" fill="#CFE5FF"/>
<path d="M288.49 145.67C291.054 145.67 293.246 144.76 295.066 142.94C296.886 141.121 297.796 138.928 297.796 136.364C297.796 133.8 296.886 131.608 295.066 129.788C293.246 127.968 291.054 127.058 288.49 127.058C285.925 127.058 283.733 127.968 281.913 129.788C280.094 131.608 279.184 133.8 279.184 136.364C279.184 138.928 280.094 141.121 281.913 142.94C283.733 144.76 285.925 145.67 288.49 145.67ZM272.98 136.364C272.98 132.083 274.489 128.433 277.509 125.414C280.549 122.374 284.209 120.854 288.49 120.854C292.771 120.854 296.421 122.374 299.44 125.414C302.48 128.433 304 132.083 304 136.364C304 140.645 302.48 144.305 299.44 147.345C296.421 150.365 292.771 151.874 288.49 151.874C287.122 151.874 285.819 151.721 284.581 151.415C282.184 150.822 279.184 152.373 279.184 154.843V161.305C279.184 162.949 277.85 164.283 276.206 164.283H275.958C274.313 164.283 272.98 162.949 272.98 161.305V136.364Z" fill="#CFE5FF"/>
<path d="M167.572 152.137C165.008 152.137 162.816 151.228 160.996 149.408C159.176 147.588 158.266 145.396 158.266 142.831C158.266 140.267 159.176 138.075 160.996 136.255C162.816 134.435 165.008 133.525 167.572 133.525H179.98C180.828 133.525 181.552 133.225 182.152 132.626C182.772 132.005 183.082 131.271 183.082 130.423C183.082 129.575 182.772 128.851 182.152 128.252C181.552 127.631 180.828 127.321 179.98 127.321H173.652H161.244C159.599 127.321 158.266 125.988 158.266 124.343V124.095C158.266 122.45 159.599 121.117 161.244 121.117H171.171H173.652H176.134H179.98C182.545 121.117 184.737 122.027 186.557 123.847C188.377 125.667 189.287 127.859 189.287 130.423C189.287 132.988 188.377 135.18 186.557 137C184.737 138.819 182.545 139.729 179.98 139.729H167.572C166.724 139.729 165.99 140.04 165.37 140.66C164.77 141.26 164.47 141.983 164.47 142.831C164.47 143.679 164.77 144.413 165.37 145.034C165.99 145.634 166.724 145.933 167.572 145.933H186.309C187.953 145.933 189.287 147.267 189.287 148.911V149.16C189.287 150.804 187.953 152.137 186.309 152.137H176.134H173.652H171.171H167.572Z" fill="#CFE5FF"/>
<path d="M173.652 121.117H176.134V119.986C176.134 118.89 175.415 117.923 174.365 117.609C173.9 117.469 173.404 117.469 172.939 117.609C171.889 117.923 171.171 118.89 171.171 119.986V121.117H173.652Z" fill="#CFE5FF"/>
<path d="M176.134 152.137H173.652H171.171V152.87C171.171 154.145 172.137 155.212 173.405 155.339C173.57 155.355 173.735 155.355 173.899 155.339C175.168 155.212 176.134 154.145 176.134 152.87V152.137Z" fill="#CFE5FF"/>
</svg>
