<svg width="24" height="24" viewBox="0 0 24 24" fill="none" xmlns="http://www.w3.org/2000/svg">
<path d="M19 11H7.83L12.71 6.12004C13.1 5.73004 13.1 5.09004 12.71 4.70004C12.6175 4.60733 12.5076 4.53379 12.3866 4.4836C12.2657 4.43342 12.136 4.40759 12.005 4.40759C11.874 4.40759 11.7444 4.43342 11.6234 4.4836C11.5024 4.53379 11.3925 4.60733 11.3 4.70004L4.71 11.29C4.6173 11.3826 4.54375 11.4924 4.49357 11.6134C4.44339 11.7344 4.41756 11.8641 4.41756 11.995C4.41756 12.126 4.44339 12.2557 4.49357 12.3767C4.54375 12.4976 4.6173 12.6075 4.71 12.7L11.3 19.29C11.3926 19.3826 11.5025 19.4561 11.6235 19.5062C11.7444 19.5563 11.8741 19.5821 12.005 19.5821C12.1359 19.5821 12.2656 19.5563 12.3865 19.5062C12.5075 19.4561 12.6174 19.3826 12.71 19.29C12.8026 19.1975 12.876 19.0875 12.9261 18.9666C12.9762 18.8456 13.002 18.716 13.002 18.585C13.002 18.4541 12.9762 18.3245 12.9261 18.2035C12.876 18.0825 12.8026 17.9726 12.71 17.88L7.83 13H19C19.55 13 20 12.55 20 12C20 11.45 19.55 11 19 11Z" fill="#31628D"/>
</svg>
